<svg xmlns="http://www.w3.org/2000/svg" width="196" height="196" viewBox="0 0 196 196"><path fill="#fff" d="M98 5.1A93.2 93.2 0 1 1 4.8 98.3 93.2 93.2 0 0 1 98 5.1zm37.5 172.3c10.6-11.2 17.6-39.7-2.2-31.3-.5-.3 5.1-39.3-28.8-49 0-.3 10.1-7.4 3.5-19.9 0 0 14.6-24.5 11.4-52.3-1.3-6.6-4.5-7.6-10.4-.7S97.2 53.7 98.6 65.7c.3.3-5.6-.2-5.6-.2s-.8-22-11-40.6c-3.2-5.5-5.6-7.1-8.8-5.5s-4.3 36.4 4 46.1c.3.2-12 .7-19.8 14.3-5 9.1-7.9 10.9-5 14.7s5 6.9 12.3 8.5l9 2s-10.4 10.2-8.8 40.3c0 .3-7.7-4.6-10.9 3.3s-3.3 24.2 20.3 35.7c7.6 4.2 17.4 5.7 27.1 5.2 14.1-.7 27.8-5.4 34.1-12.1z"/><path d="M87.2 180.2c.3.5 2.8 5 14.2 9.3-9.7.5-19.5-1-27.1-5.2-23.6-11.5-23.6-27.8-20.3-35.7s10.9-3 10.9-3.3c-1.6-30.1 8.8-40.3 8.8-40.3l-9-2c-7.3-1.6-9.4-4.6-12.3-8.5s0-5.6 5-14.7c7.8-13.6 20.1-14.1 19.8-14.3-8.3-9.7-7.2-44.4-4-46.1s5.6 0 8.8 5.5c10.2 18.6 11 40.6 11 40.6s5.9.5 5.6.2c-1.4-12 4.5-34.6 10.4-41.5s9.1-5.9 10.4.7c3.2 27.8-11.4 52.3-11.4 52.3 6.6 12.5-3.5 19.6-3.5 19.9 33.9 9.7 28.3 48.7 28.8 49 19.8-8.4 12.8 20.1 2.2 31.3-6.3 6.7-20 11.4-34.1 12.1 0 0 10.7-2.2 13.1-11.4a2.2 2.2 0 0 1-1.7.7s3.3-3.7 3.2-7.5a5.6 5.6 0 0 1-1.8 1.7c0-.1 1.7-4.3-1.5-7.4a8.6 8.6 0 0 1-.5 2.7s-.2-4.2-5.8-7.4a3.4 3.4 0 0 1 .8 1.9c0-.1-4.5-1.6-5.8-4-.1 0-5.4 1.8-7.3 4.6a6.9 6.9 0 0 1 .4-2.2c0-.1-5.8 3.3-5.4 7.2 0 .1-1.3-1.1-1-2.1s-2.2 5-.5 9.5c-.1.1-1.1.1-1.2-.5s1.2 4.2 2.9 5.3c0 0-1.7 0-2.1-.4z"/><path fill="none" stroke="#000" stroke-miterlimit="10" stroke-width="3.96" d="M93 65.5s-.8-22-11-40.6c-3.2-5.5-5.6-7.1-8.8-5.5s-4.3 36.4 4 46.1c.3.2-12 .7-19.8 14.3-5 9.1-7.9 10.9-5 14.7s5 6.9 12.3 8.5l9 2s-10.4 10.2-8.8 40.3c0 .3-7.7-4.6-10.9 3.3s-3.3 24.2 20.3 35.7c7.6 4.2 17.4 5.7 27.1 5.2 14.1-.7 27.8-5.4 34.1-12.1 10.6-11.2 17.6-39.7-2.2-31.3-.5-.3 5.1-39.3-28.8-49 0-.3 10.1-7.4 3.5-19.9 0 0 14.6-24.5 11.4-52.3-1.3-6.6-4.5-7.6-10.4-.7S97.2 53.7 98.6 65.7c.3.3-5.6-.2-5.6-.2z"/><path fill="none" stroke="#000" stroke-linecap="round" stroke-linejoin="round" stroke-width="1.52" d="M87.2 180.2c.3.5 2.8 5 14.2 9.3 0 0 10.7-2.2 13.1-11.4a2.2 2.2 0 0 1-1.7.7s3.3-3.7 3.2-7.5a5.6 5.6 0 0 1-1.8 1.7c0-.1 1.7-4.3-1.5-7.4a8.6 8.6 0 0 1-.5 2.7s-.2-4.2-5.8-7.4a3.4 3.4 0 0 1 .8 1.9c0-.1-4.5-1.6-5.8-4-.1 0-5.4 1.8-7.3 4.6a6.9 6.9 0 0 1 .4-2.2c0-.1-5.8 3.3-5.4 7.2 0 .1-1.3-1.1-1-2.1s-2.2 5-.5 9.5c-.1.1-1.1.1-1.2-.5s1.2 4.2 2.9 5.3c0 0-1.7 0-2.1-.4"/><circle cx="98" cy="98.3" r="93.2" fill="none" stroke="#000" stroke-miterlimit="10" stroke-width="3.96"/></svg>