<svg id="Layer_1" data-name="Layer 1" xmlns="http://www.w3.org/2000/svg" width="150" height="150" viewBox="0 0 150 150"><title>bunny-icon</title><path d="M75,5.6A70.7,70.7,0,1,1,4.4,76.3,70.7,70.7,0,0,1,75,5.6Zm28.4,130.7c8.1-8.5,13.4-30.2-1.6-23.8-.4-.2,3.8-29.8-21.9-37.1,0-.2,7.7-5.6,2.6-15.1,0,0,11.2-18.5,8.8-39.6-1.1-5-3.5-5.8-7.9-.6s-9,22.4-8,31.5c.3.2-4.2-.2-4.2-.2s-.6-16.6-8.3-30.7c-2.4-4.2-4.3-5.4-6.7-4.2s-3.2,27.6,3,34.9A21.2,21.2,0,0,0,44.3,62.2c-3.9,7-6.1,8.4-3.9,11.2s3.9,5.3,9.3,6.4l6.9,1.6s-7.9,7.7-6.7,30.5c0,.2-5.9-3.5-8.3,2.5S39.2,132.8,57,141.5c5.8,3.2,13.3,4.3,20.6,3.9C88.2,144.9,98.7,141.3,103.4,136.3Z" fill="#fff"/><path d="M66.8,138.4c.3.4,2.2,3.7,10.8,7-7.3.4-14.8-.7-20.6-3.9-17.8-8.7-17.8-21.1-15.4-27.1s8.3-2.3,8.3-2.5c-1.2-22.8,6.7-30.5,6.7-30.5l-6.9-1.6c-5.4-1.1-7.1-3.4-9.3-6.4s0-4.2,3.9-11.2A21.2,21.2,0,0,1,59.2,51.4c-6.2-7.3-5.4-33.6-3-34.9s4.3,0,6.7,4.2c7.7,14.1,8.3,30.7,8.3,30.7s4.5.4,4.2.2c-1-9.1,3.5-26.3,8-31.5s6.8-4.4,7.9.6c2.4,21.1-8.8,39.6-8.8,39.6,5.1,9.5-2.6,14.9-2.6,15.1,25.7,7.3,21.5,36.9,21.9,37.1,15-6.4,9.7,15.3,1.6,23.8-4.7,5-15.2,8.6-25.8,9.1,0,0,8.1-1.7,9.9-8.6a1.9,1.9,0,0,1-1.3.5s2.5-2.8,2.4-5.7a3.6,3.6,0,0,1-1.3,1.3c0-.1,1.3-3.3-1.1-5.6a14.3,14.3,0,0,1-.4,2.1s-.2-3.2-4.4-5.6a3.4,3.4,0,0,1,.5,1.4c0-.1-3.3-1.2-4.3-3.1-.1,0-4.1,1.4-5.5,3.5-.1,0,0-1.4.3-1.6s-4.4,2.4-4.2,5.4c0,.1-.9-.8-.7-1.5s-1.7,3.8-.4,7.1c-.1.1-.8.2-.9-.3s.9,3.1,2.2,4S67.1,138.7,66.8,138.4Z"/><path d="M71.2,51.4s-.6-16.6-8.3-30.7c-2.4-4.2-4.3-5.4-6.7-4.2s-3.2,27.6,3,34.9A21.2,21.2,0,0,0,44.3,62.2c-3.9,7-6.1,8.4-3.9,11.2s3.9,5.3,9.3,6.4l6.9,1.6s-7.9,7.7-6.7,30.5c0,.2-5.9-3.5-8.3,2.5S39.2,132.8,57,141.5c5.8,3.2,13.3,4.3,20.6,3.9,10.6-.5,21.1-4.1,25.8-9.1,8.1-8.5,13.4-30.2-1.6-23.8-.4-.2,3.8-29.8-21.9-37.1,0-.2,7.7-5.6,2.6-15.1,0,0,11.2-18.5,8.8-39.6-1.1-5-3.5-5.8-7.9-.6s-9,22.4-8,31.5C75.7,51.8,71.2,51.4,71.2,51.4Z" fill="none" stroke="#000" stroke-miterlimit="10" stroke-width="3"/><path d="M66.8,138.4h0c.3.4,2.2,3.7,10.8,7,0,0,8.1-1.7,9.9-8.6a1.9,1.9,0,0,1-1.3.5s2.5-2.8,2.4-5.7a3.6,3.6,0,0,1-1.3,1.3c0-.1,1.3-3.3-1.1-5.6a14.3,14.3,0,0,1-.4,2.1s-.2-3.2-4.4-5.6a3.4,3.4,0,0,1,.5,1.4c0-.1-3.3-1.2-4.3-3.1-.1,0-4.1,1.4-5.5,3.5-.1,0,0-1.4.3-1.6s-4.4,2.4-4.2,5.4c0,.1-.9-.8-.7-1.5s-1.7,3.8-.4,7.1c-.1.1-.8.2-.9-.3s.9,3.1,2.2,4-1.3,0-1.6-.3" fill="none" stroke="#000" stroke-linecap="round" stroke-linejoin="round" stroke-width="1.15"/><circle cx="75" cy="76.3" r="70.6" fill="none" stroke="#000" stroke-miterlimit="10" stroke-width="3"/></svg>